<?xml version="1.0" encoding="UTF-8"?>
<svg version="1.1" xmlns="http://www.w3.org/2000/svg" width="50" height="50">
<path d="M0 0 C13.86 0 27.72 0 42 0 C42 11.88 42 23.76 42 36 C28.14 36 14.28 36 0 36 C0 24.12 0 12.24 0 0 Z M3 2 C2.67 3.32 2.34 4.64 2 6 C14.54 6 27.08 6 40 6 C39.505 4.02 39.505 4.02 39 2 C27.12 2 15.24 2 3 2 Z M2 8 C1.979375 12.104375 1.95875 16.20875 1.9375 20.4375 C1.928396 21.73357178 1.91929199 23.02964355 1.90991211 24.36499023 C1.90741455 25.37762939 1.90491699 26.39026855 1.90234375 27.43359375 C1.89710693 28.47572021 1.89187012 29.51784668 1.88647461 30.59155273 C1.72694444 32.95128747 1.72694444 32.95128747 3 34 C5.65456193 34.10095564 8.28255176 34.13970998 10.9375 34.1328125 C12.13040649 34.13424759 12.13040649 34.13424759 13.34741211 34.13571167 C15.0320646 34.13639343 16.71671971 34.13453943 18.40136719 34.13037109 C20.98899197 34.12502275 23.57644316 34.13031619 26.1640625 34.13671875 C27.79687539 34.13605797 29.42968816 34.1347768 31.0625 34.1328125 C31.84165771 34.13483673 32.62081543 34.13686096 33.42358398 34.13894653 C37.007942 34.4583958 37.007942 34.4583958 40 33 C40.08737645 31.14630389 40.10698153 29.28932459 40.09765625 27.43359375 C40.09515869 26.42095459 40.09266113 25.40831543 40.09008789 24.36499023 C40.08098389 23.06891846 40.07187988 21.77284668 40.0625 20.4375 C40.041875 16.333125 40.02125 12.22875 40 8 C27.46 8 14.92 8 2 8 Z " fill="#FBC56B" transform="translate(4,7)"/>
<path d="M0 0 C0.99 0 1.98 0 3 0 C2.45276317 3.37462715 1.9451 5.08235 0 8 C-1.65 7.67 -3.3 7.34 -5 7 C-5.33 5.68 -5.66 4.36 -6 3 C-5.195625 2.87625 -4.39125 2.7525 -3.5625 2.625 C-2.716875 2.41875 -1.87125 2.2125 -1 2 C-0.67 1.34 -0.34 0.68 0 0 Z " fill="#FCC369" transform="translate(35,29)"/>
<path d="M0 0 C0.99 0 1.98 0 3 0 C2.45276317 3.37462715 1.9451 5.08235 0 8 C-1.65 7.67 -3.3 7.34 -5 7 C-5.33 5.68 -5.66 4.36 -6 3 C-5.195625 2.87625 -4.39125 2.7525 -3.5625 2.625 C-2.716875 2.41875 -1.87125 2.2125 -1 2 C-0.67 1.34 -0.34 0.68 0 0 Z " fill="#FCC369" transform="translate(35,19)"/>
<path d="M0 0 C4.29 0 8.58 0 13 0 C13 0.66 13 1.32 13 2 C8.71 2 4.42 2 0 2 C0 1.34 0 0.68 0 0 Z " fill="#FCC56A" transform="translate(12,32)"/>
<path d="M0 0 C4.29 0 8.58 0 13 0 C13 0.66 13 1.32 13 2 C8.71 2 4.42 2 0 2 C0 1.34 0 0.68 0 0 Z " fill="#FCC56A" transform="translate(12,22)"/>
<path d="M0 0 C0.66 0 1.32 0 2 0 C2 0.66 2 1.32 2 2 C1.34 2 0.68 2 0 2 C0 1.34 0 0.68 0 0 Z " fill="#FCC46A" transform="translate(13,10)"/>
<path d="M0 0 C0.66 0 1.32 0 2 0 C2 0.66 2 1.32 2 2 C1.34 2 0.68 2 0 2 C0 1.34 0 0.68 0 0 Z " fill="#FCC46A" transform="translate(10,10)"/>
<path d="M0 0 C0.66 0 1.32 0 2 0 C2 0.66 2 1.32 2 2 C1.34 2 0.68 2 0 2 C0 1.34 0 0.68 0 0 Z " fill="#FCC46A" transform="translate(7,10)"/>
</svg>
