<svg xmlns="http://www.w3.org/2000/svg" xmlns:xlink="http://www.w3.org/1999/xlink" viewBox="0,0,256,256" width="50px" height="50px"><g fill="#fcc56b" fill-rule="nonzero" stroke="none" stroke-width="1" stroke-linecap="butt" stroke-linejoin="miter" stroke-miterlimit="10" stroke-dasharray="" stroke-dashoffset="0" font-family="none" font-weight="none" font-size="none" text-anchor="none" style="mix-blend-mode: normal"><g transform="scale(5.12,5.12)"><path d="M43.58203,2l-14.04687,15.20117l-7.30859,-6.79883l-3.22656,3.40039l10.72461,10.19727l17.27539,-18.78906zM9,4c-2.74952,0 -5,2.25048 -5,5v32c0,2.74952 2.25048,5 5,5h32c2.74952,0 5,-2.25048 5,-5v-22.75v-9l-2,2.16992v6.83008v22.75c0,1.66848 -1.33152,3 -3,3h-32c-1.66848,0 -3,-1.33152 -3,-3v-32c0,-1.66848 1.33152,-3 3,-3h21.875c0.00201,0.00001 0.00385,0 0.00586,0h6.2793l1.84961,-2h-8.12891c-0.00195,-0.00001 -0.00391,-0.00001 -0.00586,0zM14.63672,22c-3.727,0 -6.18359,2.01039 -6.18359,5.02539c0,2.467 1.45508,4.019 4.45508,4.75l2.18359,0.54883c2.273,0.548 3.18164,1.27939 3.18164,2.65039c0,1.553 -1.54572,2.64844 -3.63672,2.64844c-2.273,0 -3.81684,-0.97905 -4.08984,-2.62305h-2.54687c0.182,3.015 2.72708,5 6.45508,5c4,0 6.54492,-2.00983 6.54492,-5.29883c0,-2.558 -1.4542,-4.02075 -4.9082,-4.84375l-1.91016,-0.45703c-2.182,-0.548 -3.08984,-1.1878 -3.08984,-2.4668c0,-1.553 1.36408,-2.55664 3.45508,-2.55664c2,0 3.36277,1.00364 3.63477,2.55664h2.54492c-0.091,-2.924 -2.63484,-4.93359 -6.08984,-4.93359zM30.08984,27c-3.75,0 -6.08984,2.55906 -6.08984,6.53906c0,3.98 2.33984,6.46094 6.08984,6.46094c3,0 5.1607,-1.32909 5.7207,-3.62109h-2.53125c-0.47,0.973 -1.58984,1.49805 -3.08984,1.49805c-2.07,0 -3.47031,-1.62795 -3.57031,-3.75195v-0.17969h9.38086v-0.66406c0,-3.89 -2.25016,-6.28125 -5.91016,-6.28125zM30.08984,29.05078c1.86,0 3.05,1.10922 3.25,2.94922h-6.58984c0.22,-1.77 1.48984,-2.94922 3.33984,-2.94922z"></path></g></g></svg>